<svg width="18.000000" height="18.000000" viewBox="0 0 18 18" fill="none" xmlns="http://www.w3.org/2000/svg" xmlns:xlink="http://www.w3.org/1999/xlink">
	<desc>
			Created with Pixso.
	</desc>
	<defs/>
	<path id="Shape" d="M0 9C0 4.02246 4.02246 0 9 0C13.9775 0 18 4.02246 18 9C18 13.9775 13.9775 18 9 18C4.02246 18 0 13.9775 0 9ZM1.49512 9C1.49512 13.1363 4.86365 16.5049 9 16.5049C13.1364 16.5049 16.5049 13.1363 16.5049 9C16.5049 4.86368 13.1364 1.49512 9 1.49512C4.86365 1.49512 1.49512 4.86368 1.49512 9Z" clip-rule="evenodd" fill="#5C81C2" fill-opacity="1.000000" fill-rule="evenodd"/>
	<path id="Shape" d="M7.69958 4.67267L12.9049 8.42697C13.3384 8.86044 13.3053 9.25351 12.9086 9.65024L7.69958 13.4045C7.22205 13.7241 6.51306 13.5808 6.51306 12.791L6.51306 5.24573C6.51306 4.45227 7.28082 4.39349 7.69958 4.67267ZM11.1821 9.00003L8.00452 6.70044L8.00452 11.2996L11.1821 9.00003Z" clip-rule="evenodd" fill="#5C81C2" fill-opacity="1.000000" fill-rule="evenodd"/>
</svg>
