<svg width="20.000000" height="20.000000" viewBox="0 0 20 20" fill="none" xmlns="http://www.w3.org/2000/svg" xmlns:xlink="http://www.w3.org/1999/xlink">
	<desc>
			Created with Pixso.
	</desc>
	<defs/>
	<path id="Shape" d="M0 10C0 4.46939 4.46936 0 10 0C15.5306 0 20 4.46939 20 10C20 15.5306 15.5306 20 10 20C4.46936 20 0 15.5306 0 10ZM1.66125 10C1.66125 14.5959 5.40405 18.3388 10 18.3388C14.5959 18.3388 18.3387 14.5959 18.3387 10C18.3387 5.40408 14.5959 1.66122 10 1.66122C5.40405 1.66122 1.66125 5.40408 1.66125 10Z" clip-rule="evenodd" fill="#E96880" fill-opacity="1.000000" fill-rule="evenodd"/>
	<path id="Shape" d="M8.55505 5.19183L14.3387 9.36325C14.8204 9.84488 14.7836 10.2816 14.3428 10.7224L8.55505 14.8939C8.02448 15.249 7.23669 15.0898 7.23669 14.2122L7.23669 5.82855C7.23669 4.94693 8.08978 4.88162 8.55505 5.19183ZM12.4244 10L8.89386 7.44489L8.89386 12.5551L12.4244 10Z" clip-rule="evenodd" fill="#E96880" fill-opacity="1.000000" fill-rule="evenodd"/>
</svg>
