<svg width="14.000000" height="15.000000" viewBox="0 0 14 15" fill="none" xmlns="http://www.w3.org/2000/svg" xmlns:xlink="http://www.w3.org/1999/xlink">
	<desc>
			Created with Pixso.
	</desc>
	<defs/>
	<g opacity="0.495745" style="mix-blend-mode:normal">
		<path id="trash copy 2" d="M14 2.63736C14 3.0015 13.7085 3.29669 13.3489 3.29669L0.651123 3.29669C0.291504 3.29669 0 3.0015 0 2.63736C0 2.27325 0.291504 1.97803 0.651123 1.97803L4.23254 1.97803L4.23254 0.494507C4.23254 0.175873 4.44238 0 4.75708 0L9.2428 0C9.5575 0 9.76746 0.175873 9.76746 0.494507L9.76746 1.97803L13.3489 1.97803C13.7085 1.97803 14 2.27325 14 2.63736ZM8.62793 1.97803L5.37207 1.97803L5.37207 1.15384L8.62793 1.15384L8.62793 1.97803ZM11.777 14.3754L12.2739 4.84418C12.2928 4.48056 12.0171 4.17017 11.658 4.15103C11.3009 4.13455 10.9923 4.41098 10.9733 4.77463L10.5089 13.6813L3.49109 13.6813L3.02673 4.77463C3.00793 4.41116 2.703 4.13339 2.34204 4.15103C1.98291 4.17017 1.70715 4.48056 1.7262 4.84418L2.22302 14.3754C2.24133 14.7256 2.52698 15 2.87329 15L11.1267 15C11.473 15 11.7587 14.7256 11.777 14.3754ZM5.64514 12.6923L5.65881 12.6923C5.97339 12.6923 6.22229 12.3859 6.21497 12.0673L6.04944 4.94077C6.04199 4.62213 5.78394 4.36188 5.46631 4.36896C5.15186 4.37637 4.90271 4.63632 4.91028 4.95496L5.07581 12.0966C5.08313 12.4104 5.33655 12.6923 5.64514 12.6923ZM8.89941 12.1136C8.89209 12.4274 8.63843 12.6923 8.32996 12.6923L8.31628 12.6923C8.00171 12.6923 7.75269 12.4058 7.76025 12.0874L7.92578 4.96335C7.93311 4.6449 8.18921 4.39746 8.50879 4.40225C8.82336 4.40967 9.07227 4.67786 9.06494 4.99649L8.89941 12.1136Z" clip-rule="evenodd" fill="#3D4044" fill-opacity="1.000000" fill-rule="evenodd"/>
	</g>
</svg>
