<svg width="20.000000" height="20.000000" viewBox="0 0 20 20" fill="none" xmlns="http://www.w3.org/2000/svg" xmlns:xlink="http://www.w3.org/1999/xlink">
	<desc>
			Created with Pixso.
	</desc>
	<defs/>
	<path id="Shape" d="M0 10C0 4.46939 4.46939 0 10 0C15.5306 0 20 4.46939 20 10C20 15.5306 15.5306 20 10 20C4.46939 20 0 15.5306 0 10ZM1.66122 10C1.66122 14.5959 5.40408 18.3388 10 18.3388C14.5959 18.3388 18.3388 14.5959 18.3388 10C18.3388 5.40408 14.5959 1.66122 10 1.66122C5.40408 1.66122 1.66122 5.40408 1.66122 10Z" clip-rule="evenodd" fill="#5C81C2" fill-opacity="1.000000" fill-rule="evenodd"/>
	<mask id="mask_1_155" fill="white">
		<path id="Shape" d="M13.8831 13.409L11.7601 11.299L13.7642 9.29166C13.8994 9.15643 13.8994 8.95276 13.7642 8.81754C13.29 8.35968 12.6823 8.10553 12.0387 8.10553C11.734 8.10553 11.4293 8.15604 11.1426 8.27496L8.9772 6.10309C8.84195 5.96783 8.63828 5.96783 8.50305 6.10309L6.10144 8.49329C5.96619 8.62854 5.96619 8.83218 6.10144 8.96744L8.28308 11.154C7.92792 12.0518 8.14459 13.0554 8.82404 13.7642C8.95276 13.8978 9.20529 13.8913 9.29816 13.7642L11.2941 11.7634L13.409 13.8815C13.5442 14.0167 13.7479 14.0167 13.8831 13.8815C14.0183 13.7479 14.0183 13.5458 13.8831 13.409ZM8.9772 11.2404C8.67252 11.8334 8.72302 12.5112 9.07822 13.0538L13.0196 9.10266C12.7328 8.89899 12.3939 8.79797 12.0224 8.79797C11.7357 8.79797 11.4652 8.86642 11.211 9.00165C11.0758 9.06845 10.9226 9.03424 10.8216 8.93323L8.74094 6.81509L6.8118 8.74911L8.90875 10.8509C9.01141 10.952 9.02771 11.1051 8.9772 11.2404Z" clip-rule="evenodd" fill="" fill-opacity="1.000000" fill-rule="evenodd"/>
	</mask>
	<path id="Shape" d="M13.8831 13.409L11.7601 11.299L13.7642 9.29166C13.8994 9.15643 13.8994 8.95276 13.7642 8.81754C13.29 8.35968 12.6823 8.10553 12.0387 8.10553C11.734 8.10553 11.4293 8.15604 11.1426 8.27496L8.9772 6.10309C8.84195 5.96783 8.63828 5.96783 8.50305 6.10309L6.10144 8.49329C5.96619 8.62854 5.96619 8.83218 6.10144 8.96744L8.28308 11.154C7.92792 12.0518 8.14459 13.0554 8.82404 13.7642C8.95276 13.8978 9.20529 13.8913 9.29816 13.7642L11.2941 11.7634L13.409 13.8815C13.5442 14.0167 13.7479 14.0167 13.8831 13.8815C14.0183 13.7479 14.0183 13.5458 13.8831 13.409ZM8.9772 11.2404C8.67252 11.8334 8.72302 12.5112 9.07822 13.0538L13.0196 9.10266C12.7328 8.89899 12.3939 8.79797 12.0224 8.79797C11.7357 8.79797 11.4652 8.86642 11.211 9.00165C11.0758 9.06845 10.9226 9.03424 10.8216 8.93323L8.74094 6.81509L6.8118 8.74911L8.90875 10.8509C9.01141 10.952 9.02771 11.1051 8.9772 11.2404Z" clip-rule="evenodd" fill="#5C81C2" fill-opacity="1.000000" fill-rule="evenodd" mask="url(#mask_1_155)"/>
	<path id="Shape" d="M13.6187 13.675L11.2292 11.3L13.4988 9.02673Q13.4906 9.03491 13.4906 9.0546Q13.4906 9.07428 13.499 9.0827Q13.1982 8.79227 12.8215 8.63629Q12.4453 8.48053 12.0387 8.48053Q11.6258 8.48053 11.2862 8.62137L11.0543 8.71756L8.71164 6.36783Q8.72043 6.37665 8.74011 6.37665Q8.7598 6.37665 8.76822 6.36823L6.36597 8.75909Q6.375 8.75006 6.375 8.73038Q6.375 8.71066 6.36658 8.70227L8.72229 11.0632L8.63181 11.292Q8.40787 11.858 8.53259 12.453Q8.65744 13.0485 9.09473 13.5047Q9.08194 13.4914 9.07089 13.4872L9.07117 13.4869Q9.06689 13.487 9.05688 13.4912Q9.02255 13.5057 8.99539 13.5429L9.01236 13.5197L11.294 11.2325L13.6743 13.6165Q13.6657 13.6079 13.646 13.6079Q13.6263 13.6079 13.6179 13.6163Q13.6095 13.6246 13.6095 13.6465Q13.6095 13.6656 13.6163 13.6725L13.6187 13.675ZM14.1498 13.1454Q14.3595 13.3576 14.3595 13.6465Q14.3595 13.938 14.1483 14.1466Q13.937 14.3579 13.646 14.3579Q13.3551 14.3579 13.1436 14.1465L11.0287 12.0283L11.2941 11.7634L11.5596 12.0282L9.56366 14.029L9.29816 13.7642L9.60095 13.9854Q9.50577 14.1157 9.34912 14.1819Q9.22226 14.2356 9.07791 14.2369Q8.93756 14.2382 8.80783 14.1896Q8.65973 14.1341 8.55331 14.0237Q7.96747 13.4125 7.79855 12.6069Q7.62759 11.7914 7.93439 11.016L8.28308 11.154L8.01764 11.4189L5.83627 9.2326Q5.625 9.02133 5.625 8.73038Q5.625 8.43939 5.83688 8.22751L8.23788 5.83792Q8.44916 5.62665 8.74011 5.62665Q9.0311 5.62665 9.24277 5.83832L11.4081 8.01019L11.1426 8.27496L10.9989 7.92859Q11.4764 7.73053 12.0387 7.73053Q12.5945 7.73053 13.1085 7.94336Q13.6167 8.15384 14.0293 8.55237Q14.2406 8.76364 14.2406 9.0546Q14.2406 9.34558 14.0295 9.55661L12.0255 11.564L11.7601 11.299L12.0244 11.033L14.1474 13.143L14.1498 13.1454ZM9.31076 11.4117Q9.13132 11.761 9.15454 12.1432Q9.17752 12.5208 9.39197 12.8484L9.07822 13.0538L8.81271 12.7889L12.7541 8.83783L13.0196 9.10266L12.8024 9.40842Q12.4709 9.17297 12.0224 9.17297Q11.6873 9.17297 11.3871 9.3327L11.3821 9.33536L11.3771 9.33786Q11.1651 9.4426 10.9337 9.39883Q10.7156 9.35754 10.5564 9.19839L8.47342 7.07788L8.74094 6.81509L9.00644 7.07993L7.0773 9.01395L6.8118 8.74911L7.0773 8.48425L9.17422 10.5861Q9.33487 10.7441 9.37091 10.9749Q9.40207 11.1745 9.32849 11.3716L9.3208 11.3922L9.31076 11.4117ZM8.64365 11.069L8.9772 11.2404L8.62589 11.1091Q8.63074 11.0961 8.62988 11.0907Q8.63211 11.1048 8.64328 11.1158L6.28214 8.74911L8.74298 6.28204L11.0868 8.66806Q11.0712 8.65247 11.0449 8.66544L11.211 9.00165L11.0349 8.67059Q11.5002 8.42297 12.0224 8.42297Q12.7102 8.42297 13.2367 8.79694L13.5981 9.05365L9.01746 13.6457L8.76447 13.2592Q8.44098 12.7651 8.40594 12.1888Q8.37021 11.6012 8.64365 11.069Z" fill="#5C81C2" fill-opacity="1.000000" fill-rule="nonzero"/>
</svg>
