<svg width="14.000000" height="14.326477" viewBox="0 0 14 14.3265" fill="none" xmlns="http://www.w3.org/2000/svg" xmlns:xlink="http://www.w3.org/1999/xlink">
	<desc>
			Created with Pixso.
	</desc>
	<defs/>
	<g opacity="0.500000" style="mix-blend-mode:normal">
		<path id="Shape" d="M1.07104 8.64523L0.0253906 13.5583C-0.124023 14.1768 0.421997 14.3644 0.712158 14.3203L5.5553 13.1918C5.67615 13.1625 5.76514 13.101 5.82568 13.0393L13.332 5.3797C14.2227 4.47092 14.2227 2.9935 13.332 2.08493L11.9558 0.680664C10.8616 -0.436218 9.30164 0.0093689 8.72693 0.680664L1.22058 8.34042C1.13135 8.43124 1.07104 8.52225 1.07104 8.64523ZM12.4961 4.5267C12.9441 4.06946 12.9441 3.36591 12.4961 2.90866L11.1199 1.50443C10.6835 1.05884 9.97095 1.05884 9.53418 1.50443L2.68567 8.49268L3.46399 8.49268C3.79163 8.49268 4.06165 8.76849 4.06165 9.10245L4.06165 10.108L5.047 10.108C5.37463 10.108 5.64453 10.3835 5.64453 10.7178L5.64453 11.4828L12.4961 4.5267ZM4.45239 11.3305L4.45239 12.1862L1.34106 12.9163L2.03076 9.71222L2.86938 9.71222L2.86938 10.7208C2.86938 10.8467 2.94983 11.3803 3.46692 11.3305L4.45239 11.3305Z" clip-rule="evenodd" fill="#3D4044" fill-opacity="1.000000" fill-rule="evenodd"/>
	</g>
</svg>
