<svg width="20.000000" height="20.000000" viewBox="0 0 20 20" fill="none" xmlns="http://www.w3.org/2000/svg" xmlns:xlink="http://www.w3.org/1999/xlink">
	<desc>
			Created with Pixso.
	</desc>
	<defs/>
	<path id="Icon Copy" d="M19.8336 18.2158L14.6588 13.0027C14.4645 12.8073 14.4451 12.5062 14.5954 12.2753C16.7171 9.02106 16.2222 4.54567 13.092 1.87256C10.08 -0.698837 5.49545 -0.61084 2.57718 2.06798C-0.772491 5.14279 -0.857086 10.3765 2.32462 13.5604C5.03775 16.2758 9.23715 16.6055 12.3211 14.5656C12.5526 14.4124 12.856 14.4324 13.0514 14.629L18.2148 19.8312C18.4382 20.0558 18.8005 20.0564 19.0245 19.8324L19.8325 19.0238C20.0554 18.8009 20.0559 18.4398 19.8336 18.2158ZM3.94061 3.92796C1.7326 6.13766 1.7326 9.73303 3.94061 11.9427C6.14859 14.1524 9.74115 14.1524 11.9491 11.9427C14.1571 9.73303 14.1571 6.13766 11.9491 3.92796C9.74115 1.7177 6.14859 1.71828 3.94061 3.92796Z" clip-rule="evenodd" fill="#FFFFFF" fill-opacity="1.000000" fill-rule="evenodd"/>
</svg>
