<svg width="20.000000" height="20.000000" viewBox="0 0 20 20" fill="none" xmlns="http://www.w3.org/2000/svg" xmlns:xlink="http://www.w3.org/1999/xlink">
	<desc>
			Created with Pixso.
	</desc>
	<defs/>
	<path id="Icon Copy" d="M4.11765 5L0.588226 5C0.263519 5 0 4.72 0 4.375L0 0.625C0 0.279999 0.263519 0 0.588226 0L4.11765 0C4.44235 0 4.70587 0.279999 4.70587 0.625L4.70587 4.375C4.70587 4.72 4.44235 5 4.11765 5ZM11.7647 5L8.23529 5C7.91058 5 7.64706 4.72 7.64706 4.375L7.64706 0.625C7.64706 0.279999 7.91058 0 8.23529 0L11.7647 0C12.0894 0 12.3529 0.279999 12.3529 0.625L12.3529 4.375C12.3529 4.72 12.0894 5 11.7647 5ZM19.4118 5L15.8824 5C15.5576 5 15.2941 4.72 15.2941 4.375L15.2941 0.625C15.2941 0.279999 15.5576 0 15.8824 0L19.4118 0C19.7365 0 20 0.279999 20 0.625L20 4.375C20 4.72 19.7365 5 19.4118 5ZM4.11765 12.5L0.588226 12.5C0.263519 12.5 0 12.22 0 11.875L0 8.125C0 7.78 0.263519 7.5 0.588226 7.5L4.11765 7.5C4.44235 7.5 4.70587 7.78 4.70587 8.125L4.70587 11.875C4.70587 12.22 4.44235 12.5 4.11765 12.5ZM11.7647 12.5L8.23529 12.5C7.91058 12.5 7.64706 12.22 7.64706 11.875L7.64706 8.125C7.64706 7.78 7.91058 7.5 8.23529 7.5L11.7647 7.5C12.0894 7.5 12.3529 7.78 12.3529 8.125L12.3529 11.875C12.3529 12.22 12.0894 12.5 11.7647 12.5ZM19.4118 12.5L15.8824 12.5C15.5576 12.5 15.2941 12.22 15.2941 11.875L15.2941 8.125C15.2941 7.78 15.5576 7.5 15.8824 7.5L19.4118 7.5C19.7365 7.5 20 7.78 20 8.125L20 11.875C20 12.22 19.7365 12.5 19.4118 12.5ZM4.11765 20L0.588226 20C0.263519 20 0 19.72 0 19.375L0 15.625C0 15.28 0.263519 15 0.588226 15L4.11765 15C4.44235 15 4.70587 15.28 4.70587 15.625L4.70587 19.375C4.70587 19.72 4.44235 20 4.11765 20ZM11.7647 20L8.23529 20C7.91058 20 7.64706 19.72 7.64706 19.375L7.64706 15.625C7.64706 15.28 7.91058 15 8.23529 15L11.7647 15C12.0894 15 12.3529 15.28 12.3529 15.625L12.3529 19.375C12.3529 19.72 12.0894 20 11.7647 20ZM19.4118 20L15.8824 20C15.5576 20 15.2941 19.72 15.2941 19.375L15.2941 15.625C15.2941 15.28 15.5576 15 15.8824 15L19.4118 15C19.7365 15 20 15.28 20 15.625L20 19.375C20 19.72 19.7365 20 19.4118 20Z" clip-rule="evenodd" fill="#FFFFFF" fill-opacity="1.000000" fill-rule="evenodd"/>
</svg>
