<svg width="22.000000" height="22.000000" viewBox="0 0 22 22" fill="none" xmlns="http://www.w3.org/2000/svg" xmlns:xlink="http://www.w3.org/1999/xlink">
	<desc>
			Created with Pixso.
	</desc>
	<defs/>
	<path id="Icon Copy" d="M20.6276 14.7206L21.3529 14.7206C21.7101 14.7206 22 15.0105 22 15.3676L22 16.6618C22 17.0189 21.7101 17.3088 21.3529 17.3088L16.3512 17.3088C16.0444 17.3088 15.7753 17.5237 15.7203 17.8252C15.2848 20.2018 13.3346 22 11 22C8.66541 22 6.71521 20.2018 6.27966 17.8252C6.22473 17.5237 5.95557 17.3088 5.6488 17.3088L0.647095 17.3088C0.289917 17.3088 0 17.0189 0 16.6618L0 15.3676C0 15.0105 0.289917 14.7206 0.647095 14.7206L1.69202 14.7206C2.27637 14.7206 2.79395 14.3311 2.94153 13.7655C3.245 12.5982 3.55884 10.89 3.55884 8.81618C3.55884 5.82483 4.63879 2.34235 9.34229 1.49664C9.65027 1.44099 9.87988 1.18217 9.87988 0.869644L9.87988 0.647064C9.87988 0.289886 10.1692 0 10.5264 0L11.8212 0C12.1783 0 12.4675 0.289886 12.4675 0.647064L12.4675 0.865112C12.4675 1.18283 12.7018 1.44489 13.0143 1.50247C17.6899 2.35854 18.7646 5.83194 18.7646 8.81618C18.7646 10.9042 19.0759 12.606 19.3782 13.7662C19.5256 14.3317 20.0433 14.7206 20.6276 14.7206ZM6.08362 8.66733C6.08362 5.30638 7.56421 3.79224 10.9999 3.66667C14.4355 3.79224 15.9161 5.30638 15.9161 8.66733C15.9161 10.7626 16.1832 12.5312 16.4827 13.858C16.5765 14.2722 16.2771 14.6667 15.8661 14.6667L6.13379 14.6667C5.72266 14.6667 5.42383 14.2722 5.51709 13.858C5.81653 12.5312 6.08362 10.7626 6.08362 8.66733ZM9.16663 17.4167C9.37256 18.4591 10.3199 19.25 11.4584 19.25C12.5967 19.25 13.5441 18.4591 13.75 17.4167L9.16663 17.4167Z" clip-rule="evenodd" fill="#B8B8B8" fill-opacity="1.000000" fill-rule="evenodd"/>
</svg>
