<svg width="20.000000" height="20.000000" viewBox="0 0 20 20" fill="none" xmlns="http://www.w3.org/2000/svg" xmlns:xlink="http://www.w3.org/1999/xlink">
	<desc>
			Created with Pixso.
	</desc>
	<defs/>
	<path id="Icon Copy" d="M19.42 9.14L11.71 9.14C11.39 9.14 11.14 8.88 11.14 8.57L11.14 0.57C11.14 0.25 10.88 0 10.57 0L9.42 0C9.11 0 8.85 0.25 8.85 0.57L8.85 8.57C8.85 8.88 8.6 9.14 8.28 9.14L0.57 9.14C0.25 9.14 0 9.39 0 9.71L0 10.85C0 11.17 0.25 11.42 0.57 11.42L8.28 11.42C8.6 11.42 8.85 11.68 8.85 12L8.85 19.42C8.85 19.74 9.11 20 9.42 20L10.57 20C10.88 20 11.14 19.74 11.14 19.42L11.14 12C11.14 11.68 11.39 11.42 11.71 11.42L19.42 11.42C19.74 11.42 20 11.17 20 10.85L20 9.71C20 9.39 19.74 9.14 19.42 9.14Z" fill="#FFFFFF" fill-opacity="1.000000" fill-rule="evenodd"/>
</svg>
