<svg width="14.000000" height="14.000000" viewBox="0 0 14 14" fill="none" xmlns="http://www.w3.org/2000/svg" xmlns:xlink="http://www.w3.org/1999/xlink">
	<desc>
			Created with Pixso.
	</desc>
	<defs/>
	<path id="Icon Copy 3" d="M13.6 6.4L8.2 6.4C7.97 6.4 7.79 6.22 7.79 6L7.79 0.4C7.79 0.17 7.62 0 7.4 0L6.59 0C6.37 0 6.2 0.17 6.2 0.4L6.2 6C6.2 6.22 6.02 6.4 5.79 6.4L0.4 6.4C0.17 6.4 0 6.57 0 6.79L0 7.59C0 7.82 0.17 8 0.4 8L5.79 8C6.02 8 6.2 8.17 6.2 8.4L6.2 13.6C6.2 13.82 6.37 14 6.59 14L7.4 14C7.62 14 7.79 13.82 7.79 13.6L7.79 8.4C7.79 8.17 7.97 8 8.2 8L13.6 8C13.82 8 14 7.82 14 7.59L14 6.79C14 6.57 13.82 6.4 13.6 6.4Z" fill="#FBFAF9" fill-opacity="1.000000" fill-rule="evenodd"/>
</svg>
