<svg width="20.000000" height="18.000000" viewBox="0 0 20 18" fill="none" xmlns="http://www.w3.org/2000/svg" xmlns:xlink="http://www.w3.org/1999/xlink">
	<desc>
			Created with Pixso.
	</desc>
	<defs/>
	<path id="Shape" d="M1.23776 3.64474C3.97244 0.91568 6.72986 1.6582 9.76105 3.31406C11.2664 4.13635 12.9317 4.73511 14.6255 4.73483C16.5768 4.73468 18.2655 3.93887 19.7206 2.51053C20.053 2.1843 20.0916 1.59616 19.8214 1.21027C19.5589 0.835144 19.0904 0.772827 18.7668 1.09048C18.0515 1.79276 17.2398 2.33395 16.3193 2.63443C14.299 3.29422 12.2137 2.64688 10.3835 1.64694C9.79694 1.32645 9.19974 1.0267 8.58743 0.77121C5.51395 -0.510742 2.81958 -0.306152 0.274445 2.23431C-0.055542 2.56369 -0.09021 3.1521 0.182617 3.53549C0.447815 3.90823 0.916748 3.96509 1.23776 3.64474ZM9.76105 9.93893C6.72986 8.28293 3.97244 7.54056 1.23776 10.2696C0.916748 10.59 0.447815 10.5333 0.182617 10.1605C-0.09021 9.77713 -0.055542 9.18857 0.274445 8.85922C2.81891 6.31934 5.51288 6.11386 8.58597 7.39536C9.19894 7.65085 9.79642 7.95074 10.3835 8.27155C12.2138 9.27148 14.2995 9.91925 16.3199 9.25949C17.2402 8.95914 18.0518 8.41794 18.7668 7.71582C19.0905 7.39801 19.5589 7.46005 19.8214 7.83514C20.0914 8.22107 20.0529 8.80902 19.7206 9.13513C18.2655 10.5635 16.577 11.36 14.6255 11.3603C12.9317 11.3604 11.2664 10.7614 9.76105 9.93893ZM9.76105 16.5791C6.72961 14.9229 3.97272 14.1804 1.23776 16.9098C0.916748 17.2301 0.447815 17.1732 0.182617 16.8007C-0.089386 16.4185 -0.0543213 15.8271 0.274445 15.4989C2.81876 12.9595 5.51248 12.7543 8.58517 14.0355C9.19843 14.2911 9.79614 14.5912 10.3835 14.912C12.2138 15.9119 14.2995 16.5595 16.3199 15.8998C17.2402 15.5993 18.0518 15.0581 18.7668 14.356C19.0905 14.0381 19.5588 14.1 19.8214 14.4753C20.0914 14.8611 20.0529 15.4492 19.7206 15.7753C18.2655 17.2036 16.577 18 14.6255 18C12.9317 18 11.2665 17.4015 9.76105 16.5791Z" clip-rule="evenodd" fill="#3D4044" fill-opacity="1.000000" fill-rule="evenodd"/>
</svg>
