<svg width="24.000000" height="24.000000" viewBox="0 0 24 24" fill="none" xmlns="http://www.w3.org/2000/svg" xmlns:xlink="http://www.w3.org/1999/xlink">
	<desc>
			Created with Pixso.
	</desc>
	<defs/>
	<path id="Shape" d="M0 12C0 5.37305 5.37299 0 12 0C18.627 0 24 5.37305 24 12C24 18.627 18.627 24 12 24C5.37299 24 0 18.627 0 12ZM22 12C22 6.48596 17.514 2 12 2C6.48599 2 2 6.48596 2 12C2 17.514 6.48599 22 12 22C17.514 22 22 17.514 22 12ZM12.092 6.04688C13.128 6.04688 14.035 6.38586 14.643 7.00183C15.213 7.57983 15.508 8.37488 15.497 9.29883C15.48 10.6829 14.638 11.5908 13.961 12.3208C13.056 13.2958 13.013 13.8348 13.026 14.4988L11.021 14.4988C11.015 13.0238 11.041 12.3738 12.453 11.0309C13.025 10.4868 13.477 10.0569 13.415 9.20984C13.358 8.40479 12.685 7.98389 12.051 7.98389C11.342 7.98389 10.513 8.51086 10.513 9.99683L8.50201 9.99683C8.50201 7.5968 9.91202 6.04688 12.092 6.04688ZM13.25 17C13.25 17.6899 12.691 18.25 12 18.25C11.311 18.25 10.75 17.6899 10.75 17C10.75 16.3101 11.311 15.75 12 15.75C12.691 15.75 13.25 16.3101 13.25 17Z" clip-rule="evenodd" fill="#FFFFFF" fill-opacity="1.000000" fill-rule="evenodd"/>
</svg>
