<svg width="33.000000" height="32.000000" viewBox="0 0 33 32" fill="none" xmlns="http://www.w3.org/2000/svg" xmlns:xlink="http://www.w3.org/1999/xlink">
	<desc>
			Created with Pixso.
	</desc>
	<defs>
		<filter id="filter_1_19_dd" x="0.000000" y="0.000000" width="33.000000" height="32.000000" filterUnits="userSpaceOnUse" color-interpolation-filters="sRGB">
			<feFlood flood-opacity="0" result="BackgroundImageFix"/>
			<feColorMatrix in="SourceAlpha" type="matrix" values="0 0 0 0 0 0 0 0 0 0 0 0 0 0 0 0 0 0 127 0" result="hardAlpha"/>
			<feOffset dx="0" dy="4"/>
			<feGaussianBlur stdDeviation="1.33333"/>
			<feComposite in2="hardAlpha" operator="out" k2="-1" k3="1"/>
			<feColorMatrix type="matrix" values="0 0 0 0 0 0 0 0 0 0 0 0 0 0 0 0 0 0 0.25 0"/>
			<feBlend mode="normal" in2="BackgroundImageFix" result="effect_dropShadow_1"/>
			<feBlend mode="normal" in="SourceGraphic" in2="effect_dropShadow_1" result="shape"/>
		</filter>
	</defs>
	<g filter="url(#filter_1_19_dd)">
		<path id="Shape" d="M26.11 11.05C25.99 10.36 25.87 9.68 25.75 9C25.73 9.15 25.71 9.29 25.69 9.43C26.26 8.68 26.83 7.94 27.4 7.19C27.48 7.09 27.56 6.98 27.64 6.87C27.79 6.67 27.69 6.38 27.55 6.21C26.71 5.17 25.88 4.14 25.04 3.1C24.92 2.96 24.81 2.81 24.69 2.67C24.58 2.53 24.31 2.46 24.15 2.53C23.24 2.89 22.33 3.26 21.42 3.62C21.29 3.67 21.16 3.72 21.03 3.77C21.18 3.79 21.32 3.81 21.46 3.83C20.95 3.56 20.44 3.29 19.92 3.02C20.01 3.13 20.09 3.24 20.18 3.35C19.92 2.49 19.66 1.63 19.41 0.77C19.37 0.65 19.33 0.52 19.3 0.4C19.23 0.17 19.01 0 18.76 0C17.44 0 16.11 0 14.78 0C14.59 0 14.4 0 14.22 0C13.97 0 13.75 0.17 13.68 0.4C13.43 1.26 13.17 2.12 12.91 2.99C12.88 3.11 12.84 3.23 12.8 3.35C12.89 3.24 12.97 3.13 13.06 3.02C12.55 3.29 12.03 3.56 11.52 3.83C11.66 3.81 11.81 3.79 11.95 3.77C11.04 3.41 10.13 3.05 9.22 2.68C9.09 2.63 8.96 2.58 8.83 2.53C8.67 2.46 8.4 2.54 8.29 2.67C7.45 3.71 6.62 4.74 5.78 5.77C5.66 5.92 5.55 6.06 5.43 6.21C5.29 6.38 5.19 6.67 5.35 6.87C5.91 7.62 6.48 8.37 7.05 9.11C7.13 9.22 7.21 9.32 7.29 9.43C7.27 9.29 7.25 9.15 7.23 9C7.11 9.69 6.99 10.37 6.87 11.05C6.95 10.94 7.04 10.83 7.12 10.71C6.29 11.13 5.45 11.55 4.62 11.96C4.5 12.02 4.38 12.08 4.26 12.14C4.04 12.25 3.96 12.53 4.01 12.76C4.27 13.99 4.52 15.21 4.78 16.44C4.82 16.61 4.85 16.78 4.89 16.96C4.94 17.21 5.19 17.34 5.42 17.36C6.38 17.45 7.34 17.53 8.31 17.62C8.45 17.63 8.58 17.64 8.72 17.65C8.56 17.56 8.4 17.47 8.24 17.38C8.6 17.87 8.95 18.35 9.3 18.84C9.28 18.75 9.25 18.65 9.23 18.56C9.12 19.44 9.02 20.33 8.91 21.21C8.89 21.34 8.88 21.46 8.86 21.59C8.84 21.76 8.98 21.99 9.14 22.06C10.28 22.61 11.43 23.15 12.57 23.69C12.74 23.77 12.9 23.85 13.06 23.93C13.28 24.03 13.56 24.03 13.73 23.84C14.34 23.2 14.95 22.56 15.56 21.93C15.65 21.83 15.74 21.74 15.82 21.65C15.69 21.71 15.56 21.76 15.43 21.82C16.14 21.82 16.85 21.82 17.56 21.82C17.43 21.76 17.3 21.71 17.17 21.65C17.78 22.29 18.39 22.93 18.99 23.57C19.08 23.66 19.17 23.75 19.25 23.84C19.43 24.03 19.71 24.03 19.93 23.93C21.07 23.38 22.22 22.84 23.36 22.3C23.52 22.22 23.69 22.14 23.85 22.06C24.01 21.99 24.15 21.76 24.12 21.59C24.02 20.7 23.91 19.82 23.8 18.94C23.79 18.81 23.77 18.68 23.76 18.56C23.73 18.65 23.71 18.75 23.68 18.84C24.04 18.35 24.39 17.87 24.75 17.38C24.59 17.47 24.43 17.56 24.27 17.65C25.23 17.57 26.19 17.48 27.15 17.4C27.29 17.39 27.43 17.37 27.57 17.36C27.8 17.34 28.05 17.21 28.1 16.96C28.36 15.73 28.62 14.51 28.87 13.28C28.91 13.11 28.95 12.94 28.98 12.76C29.03 12.53 28.95 12.25 28.73 12.14C27.89 11.72 27.05 11.31 26.22 10.89C26.1 10.83 25.98 10.78 25.87 10.71C25.61 10.59 25.25 10.64 25.11 10.91C24.97 11.16 25.03 11.53 25.31 11.67C26.14 12.09 26.98 12.5 27.81 12.92C27.93 12.97 28.05 13.03 28.17 13.09C28.08 12.89 28 12.68 27.91 12.47C27.65 13.7 27.4 14.92 27.14 16.15C27.1 16.32 27.07 16.49 27.03 16.67C27.21 16.53 27.39 16.39 27.57 16.26C26.47 16.36 25.37 16.44 24.27 16.55C24.05 16.57 23.92 16.65 23.79 16.83C23.77 16.85 23.75 16.88 23.73 16.91C23.64 17.03 23.55 17.15 23.46 17.27C23.25 17.56 23.04 17.86 22.83 18.15C22.73 18.28 22.64 18.39 22.65 18.57C22.65 18.62 22.66 18.67 22.67 18.72C22.71 19.03 22.75 19.34 22.78 19.65C22.86 20.3 22.94 20.94 23.02 21.59C23.11 21.43 23.2 21.27 23.29 21.11C22.15 21.66 21 22.2 19.86 22.74C19.69 22.82 19.53 22.9 19.37 22.98C19.59 23 19.82 23.03 20.04 23.06C19.65 22.66 19.27 22.25 18.88 21.85C18.64 21.6 18.4 21.35 18.16 21.1C17.97 20.9 17.83 20.72 17.52 20.71C16.87 20.7 16.23 20.71 15.58 20.71C15.38 20.71 15.2 20.72 15.04 20.87C15 20.91 14.97 20.95 14.93 20.98C14.72 21.2 14.51 21.42 14.3 21.65C13.85 22.12 13.39 22.59 12.95 23.06C13.17 23.04 13.39 23.01 13.62 22.98C12.47 22.44 11.33 21.89 10.18 21.35C10.02 21.27 9.86 21.19 9.69 21.12C9.78 21.28 9.88 21.43 9.97 21.59C10.03 21.05 10.1 20.49 10.17 19.95C10.21 19.59 10.25 19.25 10.29 18.9C10.32 18.67 10.38 18.47 10.24 18.26C9.91 17.77 9.55 17.31 9.2 16.83C9.07 16.66 8.94 16.58 8.71 16.56C8.69 16.55 8.67 16.55 8.65 16.55C8.55 16.54 8.46 16.54 8.36 16.53C8.01 16.5 7.66 16.47 7.32 16.44C6.68 16.38 6.05 16.32 5.42 16.27C5.6 16.4 5.78 16.54 5.96 16.67C5.7 15.45 5.44 14.22 5.18 12.99C5.15 12.82 5.11 12.65 5.08 12.48C4.99 12.68 4.91 12.89 4.82 13.1C5.33 12.84 5.85 12.59 6.36 12.33C6.7 12.17 7.03 12 7.36 11.84C7.6 11.72 7.87 11.63 7.94 11.33C8.08 10.7 8.17 10.05 8.28 9.41C8.32 9.23 8.35 9.05 8.25 8.88C8.21 8.82 8.17 8.77 8.12 8.72C7.92 8.46 7.72 8.19 7.52 7.93C7.12 7.39 6.71 6.86 6.3 6.33C6.28 6.55 6.25 6.77 6.22 6.99C7.06 5.96 7.89 4.92 8.73 3.89C8.84 3.75 8.96 3.6 9.08 3.46C8.9 3.5 8.72 3.55 8.54 3.6C9.03 3.79 9.52 3.99 10.02 4.19C10.37 4.33 10.72 4.47 11.08 4.61C11.27 4.68 11.45 4.77 11.64 4.84C11.93 4.93 12.3 4.67 12.55 4.54C12.87 4.37 13.19 4.21 13.5 4.04C13.67 3.95 13.81 3.85 13.87 3.65C13.89 3.59 13.91 3.53 13.93 3.47C14.02 3.17 14.11 2.87 14.2 2.57C14.38 1.94 14.57 1.32 14.76 0.7C14.58 0.83 14.4 0.97 14.22 1.1C15.55 1.1 16.88 1.1 18.21 1.1C18.39 1.1 18.58 1.1 18.77 1.1C18.59 0.97 18.41 0.83 18.23 0.7C18.39 1.23 18.54 1.75 18.7 2.28C18.8 2.62 18.9 2.96 19.01 3.31C19.08 3.56 19.13 3.85 19.38 3.99C19.64 4.14 19.91 4.27 20.17 4.4C20.42 4.53 20.66 4.66 20.9 4.78C21.21 4.94 21.42 4.8 21.7 4.69C22.03 4.56 22.36 4.43 22.69 4.3C23.27 4.07 23.86 3.83 24.45 3.6C24.27 3.55 24.09 3.51 23.91 3.46C24.75 4.49 25.58 5.53 26.42 6.56C26.54 6.71 26.65 6.85 26.77 7C26.74 6.77 26.71 6.55 26.68 6.33C26.22 6.94 25.75 7.55 25.29 8.16C25.11 8.39 24.9 8.62 24.74 8.87C24.63 9.07 24.68 9.28 24.72 9.48C24.76 9.7 24.79 9.91 24.83 10.13C24.91 10.54 24.98 10.94 25.05 11.35C25.1 11.63 25.47 11.82 25.73 11.74C26.03 11.63 26.17 11.35 26.11 11.05Z" fill="#FFFFFF" fill-opacity="1.000000" fill-rule="nonzero"/>
	</g>
	<path id="Shape" d="M16.49 14.94C16.39 14.94 16.3 14.94 16.2 14.93C16.15 14.93 16.1 14.92 16.05 14.92C15.95 14.91 16.07 14.93 16.08 14.92C16.06 14.93 16.02 14.91 15.99 14.91C15.8 14.88 15.6 14.83 15.42 14.77C15.33 14.74 15.24 14.71 15.15 14.68C15.06 14.64 15.18 14.69 15.18 14.69C15.18 14.69 15.13 14.67 15.12 14.66C15.07 14.64 15.03 14.62 14.98 14.59C14.81 14.51 14.65 14.41 14.49 14.3C14.46 14.28 14.39 14.25 14.38 14.22C14.4 14.26 14.45 14.28 14.41 14.24C14.39 14.22 14.37 14.21 14.35 14.19C14.28 14.13 14.2 14.06 14.13 14C14.07 13.93 14 13.87 13.94 13.8C13.91 13.76 13.88 13.73 13.85 13.7C13.83 13.68 13.82 13.66 13.8 13.64C13.75 13.57 13.78 13.64 13.81 13.66C13.76 13.63 13.69 13.48 13.65 13.43C13.6 13.35 13.55 13.27 13.5 13.18C13.45 13.1 13.41 13.02 13.37 12.93C13.36 12.91 13.35 12.89 13.34 12.87C13.31 12.81 13.38 12.96 13.36 12.9C13.34 12.85 13.32 12.8 13.3 12.75C13.23 12.57 13.18 12.38 13.14 12.19C13.13 12.14 13.12 12.09 13.11 12.05C13.11 12.02 13.11 12 13.1 11.98C13.09 11.9 13.11 12.08 13.11 12.01C13.1 11.9 13.09 11.8 13.08 11.7C13.08 11.5 13.09 11.3 13.11 11.09C13.12 11.02 13.09 11.2 13.1 11.13C13.11 11.1 13.11 11.08 13.11 11.05C13.12 11.01 13.13 10.96 13.14 10.91C13.16 10.81 13.18 10.71 13.21 10.62C13.24 10.53 13.27 10.44 13.3 10.35C13.31 10.31 13.33 10.26 13.35 10.22C13.38 10.15 13.33 10.22 13.34 10.25C13.33 10.23 13.36 10.18 13.37 10.17C13.45 10 13.55 9.83 13.65 9.67C13.69 9.62 13.75 9.47 13.81 9.44C13.8 9.45 13.73 9.54 13.79 9.47C13.81 9.45 13.82 9.43 13.84 9.42C13.87 9.38 13.9 9.34 13.94 9.3C14.06 9.16 14.2 9.03 14.35 8.91C14.37 8.89 14.38 8.88 14.4 8.87C14.45 8.83 14.39 8.84 14.37 8.88C14.39 8.85 14.46 8.82 14.48 8.8C14.56 8.75 14.65 8.69 14.73 8.64C14.81 8.59 14.89 8.55 14.97 8.51C15.01 8.49 15.05 8.47 15.08 8.45C15.1 8.44 15.13 8.44 15.15 8.43C15.26 8.37 15.04 8.47 15.15 8.42C15.33 8.35 15.51 8.29 15.71 8.25C15.8 8.23 15.89 8.2 15.99 8.19C16 8.19 16.02 8.19 16.04 8.18C16.13 8.17 16.02 8.19 16.01 8.19C16.07 8.19 16.13 8.18 16.19 8.17C16.39 8.15 16.6 8.16 16.8 8.17C16.85 8.18 16.9 8.18 16.94 8.19C17.02 8.19 16.84 8.17 16.91 8.18C16.93 8.18 16.95 8.19 16.97 8.19C17.07 8.2 17.18 8.23 17.28 8.25C17.47 8.3 17.66 8.36 17.84 8.43C17.9 8.46 17.74 8.39 17.81 8.42C17.83 8.43 17.85 8.44 17.87 8.45C17.91 8.46 17.95 8.48 17.98 8.5C18.08 8.55 18.17 8.6 18.26 8.65C18.34 8.7 18.41 8.75 18.49 8.8C18.52 8.82 18.59 8.85 18.6 8.88C18.6 8.88 18.5 8.8 18.58 8.86C18.6 8.88 18.62 8.9 18.64 8.92C18.79 9.04 18.93 9.17 19.05 9.31C19.08 9.35 19.11 9.38 19.14 9.42C19.16 9.44 19.17 9.46 19.19 9.47C19.23 9.52 19.21 9.47 19.17 9.44C19.2 9.46 19.23 9.53 19.25 9.56C19.28 9.6 19.31 9.64 19.34 9.68C19.44 9.84 19.53 10.01 19.61 10.18C19.62 10.2 19.64 10.24 19.64 10.25C19.64 10.25 19.59 10.13 19.63 10.22C19.64 10.26 19.66 10.31 19.68 10.35C19.71 10.44 19.74 10.53 19.77 10.62C19.79 10.71 19.81 10.8 19.83 10.9C19.84 10.94 19.85 10.99 19.86 11.04C19.87 11.06 19.87 11.08 19.87 11.11C19.89 11.23 19.86 10.98 19.87 11.11C19.89 11.3 19.9 11.5 19.89 11.7C19.89 11.79 19.88 11.89 19.87 11.99C19.86 12.08 19.87 11.97 19.88 11.96C19.87 11.98 19.87 12 19.87 12.03C19.86 12.09 19.84 12.15 19.83 12.2C19.8 12.39 19.74 12.57 19.68 12.75C19.66 12.79 19.65 12.83 19.63 12.88C19.59 12.97 19.64 12.85 19.64 12.85C19.65 12.86 19.62 12.9 19.61 12.91C19.57 13.01 19.52 13.1 19.47 13.19C19.43 13.27 19.38 13.34 19.34 13.41C19.31 13.45 19.29 13.49 19.26 13.53C19.24 13.56 19.2 13.64 19.17 13.65C19.21 13.63 19.23 13.58 19.19 13.63C19.17 13.65 19.16 13.66 19.14 13.68C19.11 13.71 19.08 13.75 19.05 13.79C18.98 13.86 18.91 13.94 18.83 14.01C18.77 14.07 18.71 14.12 18.64 14.18C18.63 14.19 18.51 14.29 18.57 14.23C18.63 14.18 18.57 14.23 18.56 14.24C18.53 14.26 18.51 14.28 18.49 14.29C18.32 14.41 18.16 14.51 17.98 14.6C17.94 14.61 17.91 14.63 17.87 14.65C17.85 14.66 17.83 14.67 17.81 14.68C17.74 14.71 17.9 14.64 17.83 14.66C17.74 14.7 17.65 14.74 17.55 14.77C17.36 14.83 17.16 14.88 16.96 14.91C16.94 14.91 16.93 14.91 16.91 14.92C16.84 14.93 17.02 14.9 16.94 14.91C16.89 14.92 16.84 14.92 16.8 14.92C16.7 14.94 16.6 14.94 16.49 14.94C16.21 14.94 15.95 15.18 15.96 15.47C15.98 15.75 16.2 16 16.49 16C17.4 15.99 18.32 15.72 19.06 15.19C19.81 14.65 20.38 13.91 20.7 13.05C21.33 11.34 20.78 9.3 19.36 8.14C18.62 7.55 17.75 7.19 16.81 7.12C15.9 7.05 14.96 7.27 14.19 7.74C13.44 8.2 12.81 8.88 12.45 9.67C12.05 10.55 11.93 11.5 12.12 12.45C12.46 14.2 13.97 15.66 15.75 15.93C15.99 15.96 16.24 15.99 16.49 15.99C16.77 15.99 17.04 15.75 17.02 15.46C17.01 15.18 16.79 14.94 16.49 14.94Z" fill="#FFFFFF" fill-opacity="1.000000" fill-rule="nonzero"/>
	<path id="Shape" d="M16.49 14.94C16.21 14.94 15.95 15.18 15.96 15.47C15.98 15.75 16.2 16 16.49 16C17.4 15.99 18.32 15.72 19.06 15.19C19.81 14.65 20.38 13.91 20.7 13.05C21.33 11.34 20.78 9.3 19.36 8.14C18.62 7.55 17.75 7.19 16.81 7.12C15.9 7.05 14.96 7.27 14.19 7.74C13.44 8.2 12.81 8.88 12.45 9.67C12.05 10.55 11.93 11.5 12.12 12.45C12.46 14.2 13.97 15.66 15.75 15.93C15.99 15.96 16.24 15.99 16.49 15.99C16.77 15.99 17.04 15.75 17.02 15.46C17.01 15.18 16.79 14.94 16.49 14.94C16.39 14.94 16.3 14.94 16.2 14.93C16.15 14.93 16.1 14.92 16.05 14.92C15.95 14.91 16.07 14.93 16.08 14.92C16.06 14.93 16.02 14.91 15.99 14.91C15.8 14.88 15.6 14.83 15.42 14.77C15.33 14.74 15.24 14.71 15.15 14.68C15.06 14.64 15.18 14.69 15.18 14.69C15.18 14.69 15.13 14.67 15.12 14.66C15.07 14.64 15.03 14.62 14.98 14.59C14.81 14.51 14.65 14.41 14.49 14.3C14.46 14.28 14.39 14.25 14.38 14.22C14.4 14.26 14.45 14.28 14.41 14.24C14.39 14.22 14.37 14.21 14.35 14.19C14.28 14.13 14.2 14.06 14.13 14C14.07 13.93 14 13.87 13.94 13.8C13.91 13.76 13.88 13.73 13.85 13.7C13.83 13.68 13.82 13.66 13.8 13.64C13.75 13.57 13.78 13.64 13.81 13.66C13.76 13.63 13.69 13.48 13.65 13.43C13.6 13.35 13.55 13.27 13.5 13.18C13.45 13.1 13.41 13.02 13.37 12.93C13.36 12.91 13.35 12.89 13.34 12.87C13.31 12.81 13.38 12.96 13.36 12.9C13.34 12.85 13.32 12.8 13.3 12.75C13.23 12.57 13.18 12.38 13.14 12.19C13.13 12.14 13.12 12.09 13.11 12.05C13.11 12.02 13.11 12 13.1 11.98C13.09 11.9 13.11 12.08 13.11 12.01C13.1 11.9 13.09 11.8 13.08 11.7C13.08 11.5 13.09 11.3 13.11 11.09C13.12 11.02 13.09 11.2 13.1 11.13C13.11 11.1 13.11 11.08 13.11 11.05C13.12 11.01 13.13 10.96 13.14 10.91C13.16 10.81 13.18 10.71 13.21 10.62C13.24 10.53 13.27 10.44 13.3 10.35C13.31 10.31 13.33 10.26 13.35 10.22C13.38 10.15 13.33 10.22 13.34 10.25C13.33 10.23 13.36 10.18 13.37 10.17C13.45 10 13.55 9.83 13.65 9.67C13.69 9.62 13.75 9.47 13.81 9.44C13.8 9.45 13.73 9.54 13.79 9.47C13.81 9.45 13.82 9.43 13.84 9.42C13.87 9.38 13.9 9.34 13.94 9.3C14.06 9.16 14.2 9.03 14.35 8.91C14.37 8.89 14.38 8.88 14.4 8.87C14.45 8.83 14.39 8.84 14.37 8.88C14.39 8.85 14.46 8.82 14.48 8.8C14.56 8.75 14.65 8.69 14.73 8.64C14.81 8.59 14.89 8.55 14.97 8.51C15.01 8.49 15.05 8.47 15.08 8.45C15.1 8.44 15.13 8.44 15.15 8.43C15.26 8.37 15.04 8.47 15.15 8.42C15.33 8.35 15.51 8.29 15.71 8.25C15.8 8.23 15.89 8.2 15.99 8.19C16 8.19 16.02 8.19 16.04 8.18C16.13 8.17 16.02 8.19 16.01 8.19C16.07 8.19 16.13 8.18 16.19 8.17C16.39 8.15 16.6 8.16 16.8 8.17C16.85 8.18 16.9 8.18 16.94 8.19C17.02 8.19 16.84 8.17 16.91 8.18C16.93 8.18 16.95 8.19 16.97 8.19C17.07 8.2 17.18 8.23 17.28 8.25C17.47 8.3 17.66 8.36 17.84 8.43C17.9 8.46 17.74 8.39 17.81 8.42C17.83 8.43 17.85 8.44 17.87 8.45C17.91 8.46 17.95 8.48 17.98 8.5C18.08 8.55 18.17 8.6 18.26 8.65C18.34 8.7 18.41 8.75 18.49 8.8C18.52 8.82 18.59 8.85 18.6 8.88C18.6 8.88 18.5 8.8 18.58 8.86C18.6 8.88 18.62 8.9 18.64 8.92C18.79 9.04 18.93 9.17 19.05 9.31C19.08 9.35 19.11 9.38 19.14 9.42C19.16 9.44 19.17 9.46 19.19 9.47C19.23 9.52 19.21 9.47 19.17 9.44C19.2 9.46 19.23 9.53 19.25 9.56C19.28 9.6 19.31 9.64 19.34 9.68C19.44 9.84 19.53 10.01 19.61 10.18C19.62 10.2 19.64 10.24 19.64 10.25C19.64 10.25 19.59 10.13 19.63 10.22C19.64 10.26 19.66 10.31 19.68 10.35C19.71 10.44 19.74 10.53 19.77 10.62C19.79 10.71 19.81 10.8 19.83 10.9C19.84 10.94 19.85 10.99 19.86 11.04C19.87 11.06 19.87 11.08 19.87 11.11C19.89 11.23 19.86 10.98 19.87 11.11C19.89 11.3 19.9 11.5 19.89 11.7C19.89 11.79 19.88 11.89 19.87 11.99C19.86 12.08 19.87 11.97 19.88 11.96C19.87 11.98 19.87 12 19.87 12.03C19.86 12.09 19.84 12.15 19.83 12.2C19.8 12.39 19.74 12.57 19.68 12.75C19.66 12.79 19.65 12.83 19.63 12.88C19.59 12.97 19.64 12.85 19.64 12.85C19.65 12.86 19.62 12.9 19.61 12.91C19.57 13.01 19.52 13.1 19.47 13.19C19.43 13.27 19.38 13.34 19.34 13.41C19.31 13.45 19.29 13.49 19.26 13.53C19.24 13.56 19.2 13.64 19.17 13.65C19.21 13.63 19.23 13.58 19.19 13.63C19.17 13.65 19.16 13.66 19.14 13.68C19.11 13.71 19.08 13.75 19.05 13.79C18.98 13.86 18.91 13.94 18.83 14.01C18.77 14.07 18.71 14.12 18.64 14.18C18.63 14.19 18.51 14.29 18.57 14.23C18.63 14.18 18.57 14.23 18.56 14.24C18.53 14.26 18.51 14.28 18.49 14.29C18.32 14.41 18.16 14.51 17.98 14.6C17.94 14.61 17.91 14.63 17.87 14.65C17.85 14.66 17.83 14.67 17.81 14.68C17.74 14.71 17.9 14.64 17.83 14.66C17.74 14.7 17.65 14.74 17.55 14.77C17.36 14.83 17.16 14.88 16.96 14.91C16.94 14.91 16.93 14.91 16.91 14.92C16.84 14.93 17.02 14.9 16.94 14.91C16.89 14.92 16.84 14.92 16.8 14.92C16.7 14.94 16.6 14.94 16.49 14.94" stroke="#000000" stroke-opacity="0" stroke-width="0.000000"/>
</svg>
